<svg data-v-084921d2="" width="36" height="36" viewBox="0 0 36 37" fill="none" xmlns="http://www.w3.org/2000/svg" class="ui-icon  info-icon">
    <path d="M0 16.2002C0 10.5997 0 7.79941 1.08993 5.66029C2.04867 3.77867 3.57847 2.24886 5.46009 1.29013C7.59921 0.200195 10.3995 0.200195 16 0.200195H20C25.6005 0.200195 28.4008 0.200195 30.5399 1.29013C32.4215 2.24886 33.9513 3.77867 34.9101 5.66029C36 7.79941 36 10.5997 36 16.2002V20.2002C36 25.8007 36 28.601 34.9101 30.7401C33.9513 32.6217 32.4215 34.1515 30.5399 35.1103C28.4008 36.2002 25.6005 36.2002 20 36.2002H16C10.3995 36.2002 7.59921 36.2002 5.46009 35.1103C3.57847 34.1515 2.04867 32.6217 1.08993 30.7401C0 28.601 0 25.8007 0 20.2002V16.2002Z" fill="#F0F2F5"></path>
    <path d="M18 10.2002C17.0717 10.2002 16.1815 10.5689 15.5251 11.2253C14.8687 11.8817 14.5 12.7719 14.5 13.7002H16.5C16.5 13.3024 16.658 12.9208 16.9393 12.6395C17.2206 12.3582 17.6022 12.2002 18 12.2002C18.3978 12.2002 18.7794 12.3582 19.0607 12.6395C19.342 12.9208 19.5 13.3024 19.5 13.7002C19.5 14.098 19.342 14.4796 19.0607 14.7609C18.7794 15.0422 18.3978 15.2002 18 15.2002C17.45 15.2002 17 15.6502 17 16.2002V17.9502L8.4 24.4002C8.23209 24.5261 8.10807 24.7017 8.04549 24.902C7.98291 25.1024 7.98495 25.3173 8.05132 25.5164C8.11769 25.7155 8.24502 25.8887 8.41529 26.0114C8.58556 26.1342 8.79012 26.2002 9 26.2002H27C27.2099 26.2002 27.4144 26.1342 27.5847 26.0114C27.755 25.8887 27.8823 25.7155 27.9487 25.5164C28.0151 25.3173 28.0171 25.1024 27.9545 24.902C27.8919 24.7017 27.7679 24.5261 27.6 24.4002L19 17.9502V17.0502C19.7216 16.835 20.3546 16.3929 20.805 15.7894C21.2554 15.1859 21.4991 14.4532 21.5 13.7002C21.5 12.7719 21.1313 11.8817 20.4749 11.2253C19.8185 10.5689 18.9283 10.2002 18 10.2002ZM18 19.7002L24 24.2002H12L18 19.7002Z" fill="black"></path>
    </svg>